
<?xml version="1.0" encoding="UTF-8" standalone="no"?>
<svg
   viewBox="0 0 31.264999 31.264999"
   version="1.1"
   id="svg1 #id"
   sodipodi:docname="teste.svg"
   inkscape:version="1.3.2 (091e20ef0f, 2023-11-25)"
   xmlns:inkscape="http://www.inkscape.org/namespaces/inkscape"
   xmlns:sodipodi="http://sodipodi.sourceforge.net/DTD/sodipodi-0.dtd"
   xmlns="http://www.w3.org/2000/svg"
   xmlns:svg="http://www.w3.org/2000/svg">
  <defs
     id="defs1" />
  <sodipodi:namedview
     id="namedview1#id"
     pagecolor="#ffffff"
     bordercolor="#000000"
     borderopacity="0.25"
     inkscape:showpageshadow="2"
     inkscape:pageopacity="0.0"
     inkscape:pagecheckerboard="0"
     inkscape:deskcolor="#d1d1d1"
     inkscape:zoom="22.517192"
     inkscape:cx="15.6325"
     inkscape:cy="15.6325"
     inkscape:window-width="1920"
     inkscape:window-height="1011"
     inkscape:window-x="0"
     inkscape:window-y="0"
     inkscape:window-maximized="1"
     inkscape:current-layer="svg1" />
  <g
     id="g1065#id"
     transform="translate(-7.72618,-6.9695185)">
    <path
       d="m 7.8584699,7.1018 v 30.882 H 38.74047 V 7.1018 Z"
       style="fill:none;stroke:#1b1918;stroke-width:0.14999"
       id="path1" />
    <g
       transform="matrix(0.26458,0,0,0.26458,7.8619099,6.9718)"
       id="g5173#id"
       style="fill-rule:evenodd">
      <path
         d="m 18.396,18.568 c -0.2456,-0.0752 -0.4073,-0.2518 -0.517,-0.5022 -0.1416,-0.3234 -0.0995,-0.474 -0.1954,-0.8539 -0.1622,-0.6412 -1.1524,-2.2847 -2.0249,-2.132 -0.4586,0.0802 0.0168,1.0252 0.1548,1.3814 0.2504,0.6464 0.7402,0.9157 1.2055,1.415 L 18.0113,18.7 c 0.0283,0.0265 0.1078,0.1058 0.1331,0.1355 0.2252,0.2626 0.0998,0.117 0.2116,0.321 0.2502,0.4558 -0.1543,0.1971 0.4638,0.5892 0.3484,0.221 0.7612,0.3185 1.0878,0.5931 0.0142,0.0122 0.0485,0.0462 0.0598,0.0561 0.0179,0.0159 0.0784,0.083 0.1143,0.1081 -0.4064,0.0317 -0.9875,0.0848 -1.0974,0.4995 0.5592,0.0232 1.1673,-0.4358 1.7928,-0.465 0.5892,-0.0274 0.7501,0.1853 1.2393,0.3247 0.6202,0.1768 1.1889,0.252 1.7448,0.5689 -0.5108,0.0318 -0.764,0.0134 -1.2432,-0.0391 -0.5639,-0.0618 -0.4713,0.0028 -0.9788,0.1799 -0.2626,0.0917 -0.2587,0.063 -0.5128,0.137 -0.5237,0.1527 -0.626,0.531 -1.1363,0.704 -0.6979,0.2368 -2.9868,-1.1333 -3.7303,0.6158 l 1.4702,0.2771 c 0.7239,0.0428 0.9872,-0.0329 1.4226,-0.284 -0.1511,0.7587 -0.9153,0.6991 -1.5339,0.9415 -0.5117,0.2005 -0.9935,0.7495 -1.2267,1.2628 l -0.1186,0.6717 c -0.0056,0.2546 0.0142,0.5466 0.0117,0.8129 0.4247,-0.0393 1.2586,-0.5843 1.7011,-0.938 0.0218,-0.0175 0.0519,-0.0419 0.0731,-0.0598 0.4517,-0.3808 0.6963,-0.8428 0.9277,-1.4235 0.249,-0.6251 0.8214,-1.2922 1.4865,-1.5162 -0.0067,1.5134 -0.5687,1.8329 0.2677,3.2757 0.6342,-0.0154 0.7683,-0.0175 0.8819,-0.5798 0.1164,-0.5749 -0.1175,-1.2011 -0.37,-1.6488 -0.0143,-0.0251 -0.037,-0.0555 -0.0522,-0.0796 -0.015,-0.0237 -0.0409,-0.052 -0.0564,-0.075 -0.3081,-0.459 -0.266,-0.8016 -0.2697,-1.4228 0.2095,-0.1561 -0.0407,0.0081 0.2546,-0.1329 l 0.5229,-0.2514 c 0.5204,-0.2336 2.5862,-0.3113 2.8505,-0.2313 0.0225,0.0069 0.0598,0.0223 0.0835,0.0306 0.0349,0.0122 0.1478,0.0552 0.1853,0.0703 l 2.5223,1.1697 c -0.7394,0.473 0.0074,-0.11 -0.3146,0.2113 -0.1502,0.1499 -0.0306,0.0228 -0.1676,0.2288 -0.5729,0.8636 -0.4425,0.2613 -1.2189,1.2646 -0.3764,0.4862 -0.7927,1.7774 -0.7927,2.492 0.2677,-0.0288 0.7532,-0.2367 0.9516,-0.359 0.3645,-0.2247 0.0584,-0.0246 0.3604,-0.2962 0.6756,-0.6078 0.9553,-0.9454 0.9201,-2.0971 0.3597,0.264 0.0745,0.0467 0.3369,0.4395 l 0.3507,0.4415 c 0.0271,0.0271 0.1095,0.1 0.1366,0.1265 0.496,0.4822 0.8387,1.0401 1.6638,1.0827 0.0124,-0.793 -0.2511,-1.3591 -0.8647,-1.8878 l -0.8814,-0.5572 c -0.4312,-0.1394 -0.5704,0.1423 -0.6145,-0.6989 0.5823,-0.2948 1.9241,-0.4119 2.6295,-0.4917 1.0394,-0.1173 0.7743,-0.1727 1.5049,-0.3491 0.2906,-0.0701 1.9246,-0.0027 2.3585,0.1122 l 0.6672,0.2565 c 0.2895,0.1193 0.0338,-0.006 0.3479,0.1692 0.0244,0.0138 0.0561,0.0347 0.0805,0.0488 l 0.6319,0.4199 c 0.3643,0.2983 0.6697,0.5834 0.8912,0.9247 0.3422,0.5275 0.4726,0.4247 0.7136,0.9884 0.8863,2.0741 0.5592,4.6293 1.3936,6.7367 0.0122,0.0301 0.0276,0.0632 0.0393,0.0933 l 0.2106,0.5775 c 0.1755,0.4408 0.2841,0.5034 0.5303,0.9047 l 1.7358,2.0541 c -0.1446,0.1402 -0.2755,0.2734 -0.4666,0.4298 -0.0301,0.0244 -0.1202,0.0917 -0.1499,0.1163 -0.6423,0.5317 -1.2027,1.0756 -1.9269,1.4826 -1.0972,0.6168 -1.9361,1.78 -2.4494,2.9163 -1.3002,2.8776 -1.0234,6.8901 0.2019,9.554 0.2769,0.6025 0.5034,1.0128 0.867,1.4881 l 2.6446,3.2534 c 0.8679,0.6715 0.6104,0.6966 1.2262,1.2588 0.4572,0.4174 0.9776,0.9153 1.3463,1.4095 l 0.665,1.022 c 0.6157,0.8849 1.2363,1.7993 1.6448,2.8226 l 0.2016,0.5802 c 0.0113,0.0288 0.0279,0.0614 0.0394,0.0902 0.9067,2.279 0.5928,4.8601 0.4923,7.2334 -0.1586,3.7321 0.3696,3.4097 0.506,4.8636 0.0991,1.0578 -0.2171,0.6956 0.5431,1.1818 0.1787,-0.1637 0.3445,-0.3521 0.5189,-0.5402 -0.0856,-0.7085 -0.3381,-0.4273 -0.23,-1.271 0.1589,-1.2368 0.3495,-2.4729 0.7228,-3.6142 0.1361,-0.416 0.1005,-0.2592 0.2299,-0.5533 0.0925,-0.2093 0.1311,-0.3535 0.2381,-0.5404 0.1051,-0.1833 0.023,-0.0472 0.1605,-0.2298 l 3.9081,-4.8822 c 0.0717,-0.0929 0.1005,-0.1334 0.1766,-0.2208 L 52.03,63.4509 c 0.0173,-0.0191 0.0458,-0.0455 0.0628,-0.0644 l 0.8831,-1.3391 c 0.2244,-0.404 1.2515,-1.8735 1.6833,-2.7752 0.1944,-0.4048 0.2309,-0.7162 0.414,-1.1522 0.8674,-2.0704 1.6217,-3.2131 1.8489,-5.754 0.1794,-2.0092 0.6902,-3.2375 0.2509,-5.465 -0.4618,-2.3429 -0.4689,-2.9224 -1.6045,-4.9687 l -0.4691,-0.7177 c -0.7483,-0.8185 0.448,0.6621 -0.1879,-0.1978 -0.276,-0.3732 -0.0867,0.0292 -0.2044,-0.4293 0.5215,0.1419 0.9251,0.2582 1.4393,0.3771 l 0.5968,0.1856 c 0.913,0.3139 1.7703,0.5607 2.6067,0.938 l 1.0808,0.6152 c 0.4473,0.2608 0.8245,0.6945 1.2527,0.9652 0.0237,0.0149 0.0584,0.0329 0.0823,0.0478 0.0246,0.015 0.0591,0.0327 0.0833,0.0479 l 0.3139,0.2145 c 0.4525,0.3583 0.7168,0.5673 1.0815,1.0183 0.408,0.5046 1.0231,0.9185 1.578,1.4254 0.3213,0.2929 0.5704,0.3125 0.9758,0.4744 l 0.1879,0.0789 c 0.0727,0.0317 0.2702,0.126 0.2718,0.1267 l 1.823,0.6593 c 0.648,0.2686 0.6867,0.1651 1.3602,0.3459 l 0.3057,0.1177 c 0.0292,0.009 0.177,0.0407 0.2085,0.0437 1.2225,0.1189 2.4775,0.2997 3.5965,0.0451 0.0667,-1.2786 -1.0256,-0.62 -2.324,-1.8756 L 70.904,46.1067 c -0.176,-0.2139 -0.1155,0.2511 -0.2282,-0.4176 0.6384,0.3394 0.9714,0.2495 1.6535,0.4344 2.1212,0.5752 4.9602,0.8198 7.1642,0.1343 1.0549,-0.3282 1.3437,-0.1663 2.2183,-0.9801 -0.021,-0.0258 -0.0375,-0.0686 -0.0481,-0.0874 -0.0103,-0.0189 -0.0349,-0.0646 -0.0481,-0.0876 -0.0135,-0.023 -0.0333,-0.0623 -0.0487,-0.0872 -0.0154,-0.0251 -0.0334,-0.0609 -0.0501,-0.0858 -0.0166,-0.0246 -0.0355,-0.0591 -0.0536,-0.0823 -0.4144,-0.537 -3.3074,-0.4512 -5.1605,-1.122 -0.2569,-0.0931 -0.2711,-0.1003 -0.4765,-0.1805 l -0.7483,-0.296 c -0.3208,-0.1543 -0.0964,-0.023 -0.33,-0.1826 1.1698,0.0393 2.7764,0.0283 3.8432,-0.2256 0.2334,-0.0556 0.1863,-0.0786 0.5701,-0.1727 0.4298,-0.1053 0.9983,-0.0563 1.4129,-0.1768 l 1.2078,-0.4936 c 0.4524,-0.1418 0.6214,-0.2656 1.0411,-0.5305 0.9852,-0.6223 1.5858,-0.4894 1.6095,-1.7077 -1.1008,0.0351 -1.6914,0.3691 -2.5867,0.3532 -0.7398,-0.0129 -1.8415,0.0798 -2.7837,0.0738 l 1.3372,-1.1468 c 0.4924,-0.3855 0.7562,-0.4625 1.0036,-0.8509 0.2668,-0.4197 0.0971,-0.4211 -0.0814,-0.8898 l -0.9044,0.3151 c -0.0251,0.0131 -0.0571,0.0329 -0.0819,0.0462 -0.0249,0.0136 -0.0561,0.0345 -0.081,0.0481 l -0.9484,0.3753 c -1.6258,0.7338 -0.9681,0.1846 -2.3072,0.4399 -0.7357,0.1403 -1.5233,0.4875 -2.3255,0.2845 l -2.1267,-0.3698 c -0.0329,-0.0094 -0.066,-0.023 -0.0959,-0.0347 -0.0288,-0.0113 -0.0596,-0.0315 -0.086,-0.0444 -0.5188,-0.2498 -0.4135,-0.2001 -1.1184,-0.3158 -1.2839,-0.2108 -2.5448,-0.8789 -3.5895,-1.6498 l -0.2988,-0.229 c -0.0204,-0.0184 -0.0492,-0.0444 -0.0692,-0.0632 -0.534,-0.5106 -1.2255,-1.2879 -1.5808,-1.947 1.3039,0.0734 2.6099,0.2243 3.9033,-0.132 0.976,-0.269 1.9117,-0.3557 2.7605,-0.9072 l 0.4105,-0.2474 c 0.4905,-0.2183 1.1374,-0.2256 1.7781,-0.4478 1.0126,-0.3511 1.9283,-0.7064 2.9335,-0.8605 0.1791,-0.0274 0.4043,-0.0324 0.6027,-0.0573 0.4098,-0.051 0.9155,-0.0421 1.3456,-0.0961 0.5038,-0.0635 1.943,-0.835 3.7942,-0.1125 0.4653,0.1817 0.5016,0.2774 1.1715,0.2376 0.0409,-0.6356 0.1529,-0.5108 -0.2606,-0.7543 -0.3691,-0.2173 -1.6521,-0.0869 -3.547,-1.0514 l -1.4555,-0.7538 -1.2255,-1.0052 c -0.0193,-0.02 -0.0457,-0.0486 -0.0648,-0.0686 -0.0189,-0.0202 -0.0449,-0.0487 -0.0642,-0.0687 -0.0186,-0.0198 -0.0446,-0.0488 -0.0637,-0.0683 l -1.7385,-1.7995 c -0.4701,-0.4292 -0.8472,-1.08 -1.3327,-1.5461 l -1.306,-1.3145 -0.9222,-0.6573 c -1.5115,-1.2211 -1.0739,-0.734 -2.3289,-1.5955 l -0.1494,-0.1127 c -0.3183,-0.2099 -0.9999,-0.3755 -1.3242,-0.5061 -0.2083,-0.0837 -0.5459,-0.1559 -0.7382,-0.187 l -1.4046,-0.4275 c -1.9193,0.0023 -3.5466,0.0322 -5.1566,0.7442 -0.3072,0.1359 -0.4834,0.1543 -0.7824,0.2679 l -0.3704,0.1594 c -0.9241,0.4141 -2.0589,1.1447 -2.6976,1.6162 -0.8853,0.6533 -1.7509,1.2108 -2.7023,1.7487 l -0.2443,0.1506 c -0.2732,0.1623 -0.3769,0.2201 -0.6993,0.3482 -2.7746,1.1029 -2.8842,0.5521 -4.5559,0.2594 l -2.6299,-0.503 c -0.2606,-0.0657 -0.284,-0.0662 -0.4942,-0.1669 -0.0274,-0.0131 -0.0584,-0.0336 -0.0851,-0.0474 -0.0262,-0.0136 -0.0568,-0.0352 -0.083,-0.049 -0.0258,-0.0136 -0.0568,-0.0347 -0.0826,-0.0483 -0.5977,-0.3091 -1.1029,-0.6262 -1.6675,-1.079 l -1.1972,-1.2963 c -0.4477,-0.5593 -0.5832,-0.7115 -0.892,-1.3219 2.2226,0.4239 1.8434,-0.3024 3.2637,-0.3856 0.215,-0.0125 0.3974,-0.0072 0.5811,0.063 0.5719,0.2175 0.1171,0.083 0.3866,0.2782 0.3396,0.2461 0.1361,0.0672 0.4181,0.233 0.9714,0.5715 -0.1861,2.0348 0.8281,3.2396 0.0131,0.0154 0.0566,0.0919 0.0662,0.0706 0.0097,-0.0212 0.0439,0.0473 0.0667,0.0706 0.9615,-1.2672 -0.1078,-1.4231 0.5149,-1.6979 0.3171,-0.1401 0.0501,0.1453 0.4613,0.4333 0.0216,0.0151 0.3588,0.1471 0.365,0.1478 0.82,0.1051 -0.6971,0.0343 0.1918,-0.0099 0.2012,-0.0101 0.2548,-0.0853 0.2587,-0.3323 0.0099,-0.5908 -0.4682,-0.6963 -0.8438,-0.9334 l 0.5448,-0.1856 c 1.0153,-0.1939 0.7778,-0.095 1.5997,-0.6345 0.8511,-0.5583 0.468,0.0437 2.5418,0.0543 -0.014,-0.591 -0.1432,-0.7253 -0.6609,-0.7952 -1.9669,-0.2656 -2.0773,0.9755 -3.1384,1.0328 0.0874,-0.4315 0.2265,-0.4768 0.3657,-0.9314 0.68,-2.2192 0.3925,-0.2403 0.427,-2.8495 -0.3629,0.0735 -0.1966,-0.015 -0.4795,0.2009 -0.0315,0.0244 -0.2504,0.2951 -0.2844,0.359 -0.6203,1.1598 0.4436,1.4428 -0.1787,2.5745 l -0.256,0.3992 c -0.4601,0.3956 -1.2885,0.2767 -1.7266,-0.0917 -0.0214,-0.0175 -0.0478,-0.0458 -0.069,-0.0633 -0.5721,-0.4746 -1.2446,-0.5937 -1.4688,-1.2825 0.2781,-0.4965 0.0752,-0.2168 0.4993,-0.5501 0.3879,-0.3049 0.2139,-0.1274 0.5142,-0.5388 l 0.2182,-0.3079 c 0.221,-0.3445 0.3756,-0.5779 0.4786,-0.9705 -0.2139,9e-4 -0.4365,-0.0202 -0.6451,0.0186 -0.2897,0.0541 -0.1752,0.0398 -0.3815,0.1419 -0.9766,0.4832 -0.8106,0.9774 -0.9831,1.9173 -0.0904,0.4923 -0.3445,0.5979 -0.8046,0.7607 -0.6957,0.2463 -2.3476,0.5347 -2.9547,0.2937 -0.2874,-0.1141 -1.1498,-1.398 -2.1458,-1.7705 -1.1609,-0.4342 -2.5225,-0.9597 -3.8724,-0.6299 -0.5586,0.1366 -0.4924,0.2762 -0.9291,0.5809 -0.2967,0.2067 -0.0536,-0.0122 -0.3641,0.2856 l -0.7975,0.7757 c -0.697,0.5151 -1.2979,0.5807 -1.7372,1.2883 -0.1869,0.301 -0.3369,0.5374 -0.502,0.9366 -0.4855,1.1754 -1.1758,0.6237 -2.2521,1.0112 -0.4772,0.1718 -0.9203,0.2065 -1.3552,-0.0186 -0.0266,-0.0138 -0.0547,-0.038 -0.0816,-0.0513 -0.3486,-0.1736 -0.2148,-0.1272 -0.6356,-0.1684 -0.8686,-0.0846 -1.5215,-0.2529 -1.7933,-1.0686 -0.6166,-1.8531 0.568,-1.257 -1.3801,-3.0791 L 23.688,17.8834 c -0.0193,-0.02 -0.0437,-0.0508 -0.063,-0.0699 -0.1522,-0.1518 0.0472,0.0214 -0.2051,-0.1824 -0.6039,-0.4882 0.3955,0.1877 -0.1543,-0.0938 -0.2449,0.4333 -0.1148,0.689 0.0441,1.246 0.3402,1.1898 0.7382,1.2517 1.5424,2.0055 0.2466,0.2311 0.2323,0.4462 0.2668,0.7907 -0.3098,-0.1424 -0.0014,0.0034 -0.2624,-0.153 l -0.4218,-0.2389 c -0.5813,-0.2619 -1.0259,-0.1982 -1.6769,-0.4094 l -1.438,-0.3943 c -0.5954,-0.1084 -0.2497,0.1016 -0.8723,-0.1642 -0.86,-0.3673 -1.52,-0.733 -2.0294,-1.5192 l 0.4123,-0.6202 c 0.4393,-0.8645 0.4038,-1.1342 0.0451,-1.9253 -0.1874,-0.4126 -0.0439,-0.1495 -0.2012,-0.3328 -0.5009,0.2102 -0.6982,0.6032 -0.6745,1.306 0.0133,0.3815 0.0512,0.488 0.1685,0.769 0.2263,0.5413 0.2169,-0.003 0.2277,0.6708 z"
         id="path5167#id"
         style="fill:#0d0d0d" />
      <path
         d="m 54.945,27.722 c -0.2826,-0.1479 -0.2364,-0.2157 -0.4836,-0.4066 l -0.1525,-0.1079 c -0.4774,-0.3118 -0.9182,-0.4146 -1.4039,-0.689 l -0.1686,-0.0924 c -0.761,-0.3638 -2.6561,-0.7152 -3.5988,-0.855 L 47.7035,25.3137 C 45.9746,24.906 46.0248,24.9538 44.4391,23.9857 L 43.5745,23.2689 C 43.4363,23.1463 43.3811,23.1152 43.2297,22.9713 L 42.9736,22.7036 C 42.3628,22.0381 41.958,21.3183 41.3822,20.6169 L 41.2601,20.4747 C 40.8084,19.9449 40.3903,19.484 39.748,19.1172 39.4992,18.9751 39.7414,19.0896 39.3861,18.953 c -0.5678,-0.2184 -1.4394,-0.5273 -2.0203,-0.5339 -1.0204,-0.0115 -1.6818,-0.2183 -2.3432,0.5162 -0.0184,0.0207 -0.0423,0.0509 -0.0602,0.0718 -0.239,0.2808 -0.4282,0.6124 -0.7267,0.8518 l -0.6669,0.3769 c -0.3953,0.2148 0.3656,-0.1828 -0.1681,0.0943 -0.0265,0.0138 -0.0598,0.0317 -0.0867,0.0451 -0.5526,0.2739 -1.0597,0.4818 -1.1363,1.2124 1.3331,0.8982 2.2107,-0.218 4.1912,1.9443 0.0181,0.0198 0.0457,0.0472 0.0641,0.067 0.155,0.1672 0.0474,0.0342 0.1914,0.2035 l 0.2805,0.382 c 0.0164,0.023 0.0382,0.0552 0.0548,0.0779 0.0167,0.0228 0.0397,0.0538 0.0561,0.0761 0.9148,1.235 1.0659,2.753 1.1774,4.3241 0.0582,0.8137 0.2042,0.2762 0.2656,1.1747 0.2242,3.2571 2.3409,4.6921 2.5216,5.0731 0.1918,0.4048 -0.0418,0.3622 0.0594,0.646 0.5459,-0.8435 0.9989,-1.8218 1.0619,-2.844 0.0134,-0.2118 -0.0073,-0.4517 0.0095,-0.6478 l 0.0975,-0.4386 c 0.0048,-0.0515 0.0232,-0.0653 0.0414,-0.0943 0.5703,0.1674 0.6039,0.8118 0.5924,1.3152 -0.0518,2.247 -1.8034,3.9097 -3.5705,5.0175 -0.0244,0.0151 -0.0568,0.0351 -0.0814,0.0503 l -0.3243,0.1971 c -0.9803,0.6292 -1.2158,0.887 -1.8264,1.8345 -1.1358,1.7627 -1.4598,3.8584 -1.159,5.9734 0.178,1.2515 0.2495,2.7559 0.8538,3.9741 0.3004,0.605 -0.2313,-0.4439 0.0888,0.1738 l 0.4597,0.8477 c 0.2254,0.4562 0.3737,0.5627 0.721,0.9861 0.1752,0.2143 0.2207,0.2941 0.3868,0.5209 l 0.6575,0.7897 c 0.0784,0.0933 0.1099,0.1428 0.1727,0.2228 l 1.1652,1.1866 c 0.5855,0.5384 1.8593,1.8242 2.2657,2.4501 l 1.5771,2.4876 c 0.0138,0.0251 0.0345,0.0573 0.0485,0.0819 l 0.1449,0.2419 c 0.0138,0.0244 0.032,0.0582 0.0457,0.0825 l 0.093,0.1661 c 0.014,0.026 0.0322,0.0589 0.0462,0.0853 0.014,0.0267 0.0319,0.0598 0.046,0.0872 0.4102,0.8044 0.7386,1.7236 1.0293,2.6513 0.5211,1.6624 0.5305,3.8963 0.3422,5.6333 -0.0895,0.8253 -0.3985,2.6464 -0.0977,3.2763 0.31,-0.5034 0.1943,-1.4451 0.5133,-2.0794 l 0.2557,-0.5305 c 0.1849,-0.4588 0.5715,-1.4281 0.8373,-1.7781 0.5453,-0.7177 0.8309,-1.418 1.1738,-2.2413 l 0.5356,-1.6787 c 0.0098,-0.0336 0.0236,-0.0658 0.0347,-0.0985 l 0.1927,-0.5967 c 0.4967,-1.9676 0.7416,-4.7415 0.3107,-6.9055 -0.2498,-1.2543 -1.2809,-4.5007 -0.9866,-5.4406 0.6575,0.1044 0.1732,-0.0727 0.4763,0.209 0.1948,0.181 0.0991,0.0693 0.1918,0.3353 0.3868,1.1135 1.1392,5.4155 1.2694,6.4555 0.5149,4.1194 -0.8766,5.6859 -1.1154,7.6729 0.5039,-0.1909 1.0096,-1.1979 1.7832,-2.0967 0.0249,-0.0292 0.0966,-0.1124 0.1212,-0.1419 0.0961,-0.1149 0.103,-0.1149 0.1757,-0.2145 l 1.1496,-2.2585 c 0.0127,-0.026 0.0331,-0.0575 0.0451,-0.084 0.0945,-0.204 0.1591,-0.5029 0.2014,-0.7133 0.374,-1.8467 0.6217,-2.6966 0.5474,-4.5612 -0.1226,-3.0579 -0.5904,-5.7152 -2.3068,-8.2938 L 50.0635,44.9388 C 50.0497,44.9144 50.0297,44.8822 50.0156,44.8583 L 48.8062,43.042 c 1.0133,-0.3459 1.1878,0.4753 1.6436,1.1222 l 1.4454,2.2291 c 0.1612,0.2449 0.094,0.1605 0.2598,0.3882 l 0.7833,1.1839 c 0.5282,0.9385 0.7699,1.9991 1.071,2.9962 0.3293,1.0889 0.7499,4.736 0.4712,5.9111 -0.1212,0.5122 -0.2739,0.603 -0.0598,0.9857 0.1989,-0.3558 0.3767,-0.8711 0.5243,-1.2915 0.6915,-1.9699 0.744,-1.1938 1.1156,-3.8304 0.2012,-1.4274 -0.1976,-4.2102 -0.8403,-5.4872 l -2.7286,-4.0686 c -0.7775,-0.8916 -1.6884,-1.7634 -2.3726,-2.7323 -0.2838,-0.4015 -0.5691,-0.6248 -0.663,-1.0473 1.2009,-0.0554 1.3244,0.7923 2.3503,1.9656 0.0177,0.0202 0.043,0.0494 0.0609,0.0699 l 1.3408,1.4166 c 0.0193,0.0193 0.0462,0.0471 0.0653,0.0671 l 1.1622,1.455 c 0.0157,0.0237 0.0361,0.0566 0.0518,0.0801 l 0.6124,0.9628 c 0.1389,0.2477 0.2398,0.3997 0.3815,0.6601 0.0143,0.0262 0.0315,0.06 0.0462,0.0862 0.014,0.026 0.0324,0.0593 0.0469,0.0853 0.2755,0.4967 0.4772,1.2722 0.8461,1.6585 -0.055,-0.5751 -0.0442,-0.935 -0.1228,-1.3398 -0.0902,-0.4643 -0.104,-0.6381 -0.1849,-1.1296 C 56.0033,44.7741 55.7195,43.998 55.4475,43.3577 55.2403,42.8688 54.9698,42.365 54.6387,41.942 l -0.1819,-0.2129 c -0.0179,-0.0205 -0.0439,-0.0492 -0.0616,-0.0695 -0.0177,-0.02 -0.044,-0.0485 -0.0619,-0.0683 L 52.2594,39.087 C 51.671,38.4868 51.2915,37.813 50.8967,37.0368 L 50.5374,36.3515 C 50.5239,36.3239 50.5059,36.2913 50.4931,36.263 l -0.3307,-1.2439 c -0.2128,-0.924 -0.669,-1.5231 0.4753,-1.5173 0.1502,0.5526 0.2557,1.2002 0.4123,1.8199 0.1905,0.7527 0.5055,1.3787 0.8491,2.0283 l 0.9504,1.2771 c 2.0546,2.0014 4.2039,1.5097 6.1703,2.3318 0.4961,0.2075 0.9263,0.5152 1.3757,0.8521 l 2.7702,2.2164 c 0.6453,0.5526 1.228,1.1032 1.9549,1.5822 1.186,0.7819 2.0242,1.2174 3.5211,1.5764 l 2.5885,0.5908 C 71.0881,46.96 71.2141,47.5153 70.9598,47.2265 l -0.2015,-0.1888 c -0.1617,-0.1497 -0.0575,-0.0672 -0.2024,-0.1838 -0.7483,-0.6011 -1.6583,-1.6258 -1.8411,-2.6156 0.3647,0.0359 1.9083,0.6002 2.3514,0.7929 2.1829,0.9489 6.7331,1.3906 9.0125,0.2976 -0.7221,-0.4512 -2.3993,-0.4813 -3.3152,-0.7591 l -0.732,-0.1704 c -0.5004,-0.1589 -1.1666,-0.5297 -1.7082,-0.7939 -0.8256,-0.4027 -0.8334,-0.5091 -1.03,-1.3632 0.5783,-0.2447 0.4732,-0.1553 1.1321,-0.0723 l 1.3184,0.1562 0.6526,-0.0713 c 1.4645,-0.402 2.9124,-0.0228 4.3283,-0.6503 l 0.8203,-0.3712 c 0.4967,-0.1592 0.4415,-0.2242 0.8785,-0.479 -0.531,-0.0488 -0.9581,0.097 -1.6648,0.0966 -1.2115,-0.0012 -1.5316,-0.1817 -2.7315,-0.1028 -0.5437,0.0358 -0.2293,0.2297 -0.6311,-0.0723 -0.2713,-0.2035 -0.2141,-0.1639 -0.3104,-0.4893 l 0.3967,-0.2679 c 0.025,-0.0148 0.0581,-0.0336 0.0841,-0.0474 0.4271,-0.2288 1.1685,-0.3958 1.3525,-0.8576 -0.4906,0.1491 -0.0847,0.1525 -0.6646,0.2424 -1.6064,0.2488 -3.5862,0.4174 -5.1665,-0.0391 -0.0327,-0.0096 -0.0644,-0.0248 -0.0964,-0.0354 L 72.708,39.0714 C 72.5072,39.0171 72.5859,39.0399 72.375,39.0139 71.4956,38.9062 71.1414,38.625 70.4968,38.5282 70.0946,38.4677 70.07,38.5523 69.7202,38.3932 69.0043,38.0678 67.8759,37.5069 67.1549,36.8945 66.4906,36.3299 65.8513,35.4586 65.3122,34.8011 64.9935,34.412 64.4997,33.769 63.6668,33.0476 l -1.1657,-0.9277 c -0.195,-0.118 0.0066,0.0023 -0.1674,-0.0932 -0.9107,-0.5004 -0.8447,-1.001 -0.3073,-0.9624 0.5347,0.0387 2.4041,1.9874 3.4302,2.2841 0.9312,0.2693 2.0132,0.0156 2.8583,0.0172 0.9935,0.0021 1.036,-0.0846 1.8404,-0.2677 C 69.6011,32.7875 68.8737,32.738 68.3519,32.4253 68.061,32.251 67.7384,32.1746 67.4217,32.053 67.2642,31.9922 67.1154,31.9196 66.979,31.8395 c -0.7563,-0.4443 -1.524,-0.9267 -2.1916,-1.4952 -0.2419,-0.2058 -0.103,-0.0467 -0.3562,-0.3029 -0.3473,-0.3509 -0.258,-0.281 -0.1796,-0.7444 0.5062,0.1279 0.6874,0.3459 1.0917,0.6405 l 0.4259,0.3502 c 0.0195,0.0175 0.0473,0.0446 0.0671,0.0619 0.4227,0.3659 0.8458,0.5478 1.3548,0.8743 l 0.9913,0.4487 c 0.0281,0.0124 0.061,0.0301 0.0888,0.0423 2.2921,1.0121 3.4801,0.3604 5.2909,0.2065 l -0.17,-0.0915 c -0.0223,-0.0115 -0.0597,-0.0336 -0.0844,-0.0462 -0.0246,-0.0129 -0.0584,-0.0332 -0.0844,-0.0458 l -0.5944,-0.184 c -0.3804,-0.0683 -0.1419,0.0582 -0.5315,-0.1163 -0.4521,-0.2029 0.0607,0.0301 -0.3123,-0.213 -0.7113,-0.4629 -1.6932,-0.6168 -2.3567,-1.1919 -0.0294,-0.0258 -0.1012,-0.1056 -0.129,-0.1329 -0.4926,-0.4892 -1.1218,-0.6692 -1.737,-1.0059 -0.0349,-0.0191 -0.1363,-0.0752 -0.1664,-0.0964 -0.3443,-0.2394 -0.5085,-0.5942 0.3851,-0.559 0.7741,0.0306 1.4447,0.8164 2.0636,1.2464 l 0.9631,0.6131 c 0.0271,0.0138 0.0611,0.0308 0.089,0.0439 0.028,0.0134 0.0625,0.029 0.091,0.0419 0.6301,0.2805 1.1358,0.4946 1.8073,0.6731 0.0355,0.0094 0.0697,0.0172 0.1061,0.0262 0.9166,0.2295 3.137,0.5186 3.911,0.0039 -0.341,-0.2854 -0.4233,-0.2274 -0.8557,-0.4319 l -0.663,-0.3946 c -0.0333,-0.0211 -0.1288,-0.0823 -0.1616,-0.103 l -1.0305,-0.663 c -0.0221,-0.0163 -0.0529,-0.0393 -0.0743,-0.0561 l -2.1675,-1.4927 c -0.0243,-0.0136 -0.0545,-0.0368 -0.0795,-0.0504 -0.4968,-0.2684 0.4744,0.1621 -0.1656,-0.0938 -0.7509,-0.3004 -1.0346,0.3284 -1.2163,-0.7716 1.0413,-0.0207 1.2584,0.124 2.0531,0.566 0.6867,0.3822 1.3417,0.6733 1.8948,1.248 0.4463,0.4643 1.0636,0.8056 1.6426,1.117 1.0162,0.5461 2.9512,0.6197 4.1001,0.5942 -0.2465,-0.5533 -1.6581,-0.9827 -2.4183,-1.7526 l -2.5748,-2.795 C 74.8745,25.5531 74.745,25.3427 74.5316,25.0603 74.163,24.5714 73.6483,24.1908 73.1714,23.8074 72.0259,22.8869 71.953,22.7491 70.5937,21.7994 69.7506,21.2102 68.804,21.0547 67.8524,20.7477 c -0.0317,-0.0101 -0.0637,-0.0255 -0.0947,-0.0361 -1.3734,-0.4733 -2.7438,-0.4031 -4.3181,-0.1955 -0.3254,0.043 -0.3836,0.0219 -0.6839,0.1102 l -1.4242,0.5273 c -0.4791,0.1486 -0.5352,0.1352 -0.9487,0.3677 -0.0722,0.0407 -0.3116,0.178 -0.4075,0.2358 l -0.1626,0.1011 c -0.0246,0.0152 -0.0561,0.0368 -0.0804,0.0522 l -1.4256,0.9321 c -0.1992,0.1332 -0.1989,0.1384 -0.391,0.2663 l -2.4671,1.5987 c -0.9932,0.5467 -1.8471,0.6164 -2.7219,1.1878 0.5733,0.0727 0.9848,0.3132 1.4408,0.5416 0.4192,0.21 0.7019,0.5485 1.0657,0.7833 -0.1019,0.1653 -0.1865,0.3366 -0.2882,0.5018 z"
         id="path5169#id"
         style="fill:#fefefe" />
      <path
         d="m 36.098,20.106 c -0.2394,0 -0.4339,0.1944 -0.4339,0.434 0,0.2396 0.1945,0.4339 0.4339,0.4339 0.2396,0 0.434,-0.1943 0.434,-0.4339 0,-0.2396 -0.1944,-0.434 -0.434,-0.434 z"
         id="path5171#id"
         style="fill:#1b1918;stroke:#1b1918;stroke-width:0.5669" />
    </g>
    <text
       transform="rotate(-90)"
       x="-26.199303"
       y="36.693649"
       font-size="3.175px"
       id="text5177#id"
       style="font-size:2.92939px;stroke-width:0.244113"><tspan
         font-size="7.1437px"
         id="tspan5175"
         style="font-size:6.59108px;font-family:'Arial Rounded MT Bold';fill:#000000;stroke-width:0.244113">#ano</tspan></text>
    <text
       x="10.144603"
       y="33.852875"
       font-size="7.6801px"
       letter-spacing="0px"
       word-spacing="0px"
       style="font-size:7.6801px;line-height:1.25;font-family:sans-serif;letter-spacing:0px;word-spacing:0px;fill:#000000;stroke-width:0.192"
       xml:space="preserve"
       id="text5181#id"><tspan
         x="10.144603"
         y="33.852875"
         id="tspan5179"
         style="stroke-width:0.192">#numero</tspan></text>
    <rect
       x="7.85847"
       y="7.1018085"
       width="31"
       height="31"
       id="rect5183#id"
       style="fill:none;stroke:#000000;stroke-width:0.26458" />
  </g>
</svg>